<svg xmlns="http://www.w3.org/2000/svg" width="18" height="18" viewBox="0 0 18 18">
    <g fill="none" fill-rule="evenodd">
        <g fill-rule="nonzero">
            <path fill="#999" d="M13.5 0H3v18h15V4.5z"/>
            <path fill="#FFF" d="M13.5 2.121L15.879 4.5H13.5z"/>
            <path fill="#FFF" d="M4.5 16.5v-15H12V6h4.5v10.5z"/>
            <path fill="#C00" d="M0 3h9v3H0zM14.882 13.038a1.269 1.269 0 0 0-.281-.3 2.037 2.037 0 0 0-.338-.22 4.907 4.907 0 0 0-2.25-.405h-.104l-.17-.138a4.156 4.156 0 0 1-.917-1.01 5.072 5.072 0 0 0 .655-2.416 1.173 1.173 0 0 0-.058-.327 1.01 1.01 0 0 0-.963-.728.936.936 0 0 0-.69.3 1.09 1.09 0 0 0-.274.75c-.008.438.034.876.124 1.305.01.031.016.065.023.096.086.36.215.709.386 1.038a14.837 14.837 0 0 1-.876 1.375 9 9 0 0 0-1.396.325 3.696 3.696 0 0 0-1.282.668c-.18.145-.32.334-.405.55a.75.75 0 0 0 .012.571c.08.163.21.295.372.378.043.023.087.042.132.059.14.05.287.075.435.074a1.671 1.671 0 0 0 1.027-.383 9.939 9.939 0 0 0 1.527-1.665c.289-.04.6-.074.953-.107.416-.037.783-.06 1.116-.072l.3.237c.406.34.835.652 1.284.934.133.08.272.15.415.21a1.2 1.2 0 0 0 .469.098c.193.003.382-.05.547-.15a.786.786 0 0 0 .327-.42.76.76 0 0 0-.1-.627zm-4.64-3.768a5.165 5.165 0 0 1-.042-.732c0-.243.104-.406.248-.406a.32.32 0 0 1 .277.258.711.711 0 0 1 .027.175c.004.082.004.164 0 .246-.016.26-.063.516-.138.765a4.893 4.893 0 0 1-.189.547 4.188 4.188 0 0 1-.183-.853zm-3.5 4.95c-.035-.08 0-.231.223-.42a3.772 3.772 0 0 1 1.585-.681c-.138.17-.275.324-.407.465a5.34 5.34 0 0 1-.568.542.945.945 0 0 1-.468.214.6.6 0 0 1-.083 0 .3.3 0 0 1-.282-.118v-.002zm3.353-2l.015-.02h-.022a.117.117 0 0 1 .016-.027c.089-.134.2-.3.32-.503l.01.021.027-.051c.088.112.184.223.285.332.048.05.099.098.15.15h-.035l.03.024-.267.02-.174.015-.355.04zm3.531 1.175a7.69 7.69 0 0 1-.876-.614 3.15 3.15 0 0 1 1.146.284c.1.048.19.112.27.188.1.095.136.182.117.241a.177.177 0 0 1-.18.098.411.411 0 0 1-.153-.035 2.828 2.828 0 0 1-.3-.15l-.024-.012z"/>
        </g>
    </g>
</svg>
