<?xml version="1.0" encoding="utf-8"?>
<!-- Generator: Adobe Illustrator 21.1.0, SVG Export Plug-In . SVG Version: 6.00 Build 0)  -->
<svg version="1.1" id="レイヤー_1" xmlns="http://www.w3.org/2000/svg" xmlns:xlink="http://www.w3.org/1999/xlink" x="0px"
	 y="0px" viewBox="0 0 28 28" style="enable-background:new 0 0 28 28;" xml:space="preserve">
<style type="text/css">
	.st0{fill:#1DA1F2;}
</style>
<title>Page 1</title>
<desc>Created with Sketch.</desc>
<path class="st0" d="M25.9,0H2.1C0.9,0,0,0.9,0,2v24c0,1.1,0.9,2,2.1,2h23.9c1.1,0,2.1-0.9,2.1-2V2C28,0.9,27.1,0,25.9,0z M23.8,9.1
	c0,0.2,0,0.4,0,0.6c0,6.6-5,14.2-14,14.2c-2.8,0-5.4-0.8-7.5-2.2c0.4,0,0.8,0.1,1.2,0.1c2.3,0,4.4-0.8,6.1-2.1c-2.2,0-4-1.5-4.6-3.5
	c0.3,0.1,0.6,0.1,0.9,0.1c0.4,0,0.9-0.1,1.3-0.2c-2.3-0.5-4-2.5-4-4.9c0,0,0,0,0-0.1c0.7,0.4,1.4,0.6,2.2,0.6
	c-1.3-0.9-2.2-2.4-2.2-4.1c0-0.9,0.2-1.8,0.7-2.5c2.4,3,6.1,5,10.1,5.2C14,10,13.9,9.6,13.9,9.2c0-2.7,2.2-5,4.9-5
	c1.4,0,2.7,0.6,3.6,1.6c1.1-0.2,2.2-0.6,3.1-1.2c-0.4,1.2-1.1,2.1-2.2,2.8c1-0.1,1.9-0.4,2.8-0.8C25.6,7.5,24.8,8.4,23.8,9.1z"/>
</svg>
