<?xml version="1.0" encoding="UTF-8"?>
<svg width="24px" height="24px" viewBox="0 0 24 24" version="1.1" xmlns="http://www.w3.org/2000/svg" xmlns:xlink="http://www.w3.org/1999/xlink">
    <!-- Generator: Sketch 46.2 (44496) - http://www.bohemiancoding.com/sketch -->
    <title>アイコン｜FB</title>
    <desc>Created with Sketch.</desc>
    <defs>
        <polygon id="path-1" points="11.9951955 24 23.990382 24 23.990382 0.00943820225 11.9951955 0.00943820225 8.98876405e-06 0.00943820225 8.98876405e-06 24 11.9951955 24"></polygon>
    </defs>
    <g id="Symbols" stroke="none" stroke-width="1" fill="none" fill-rule="evenodd">
        <g id="モジュール｜SNSシェア" transform="translate(-22.000000, -6.000000)">
            <g id="アイコン｜FB">
                <g transform="translate(22.000000, 6.000000)">
                    <g>
                        <g id="Group-3">
                            <mask id="mask-2" fill="white">
                                <use xlink:href="#path-1"></use>
                            </mask>
                            <g id="Clip-2"></g>
                            <path d="M22.6663461,24 C23.3974921,24 23.990391,23.4071011 23.990391,22.6759551 L23.990391,1.33357303 C23.990391,0.602157303 23.3974921,0.00943820225 22.6663461,0.00943820225 L1.32405393,0.00943820225 C0.592638202,0.00943820225 8.98876405e-06,0.602157303 8.98876405e-06,1.33357303 L8.98876405e-06,22.6759551 C8.98876405e-06,23.4071011 0.592638202,24 1.32405393,24 L22.6663461,24 Z" id="Fill-1" fill="#3C5A99" mask="url(#mask-2)"></path>
                        </g>
                        <path d="M16.6611823,24 L16.6611823,14.6164601 L19.9465202,14.6164601 L20.4383787,10.9594625 L16.6611823,10.9594625 L16.6611823,8.62463117 C16.6611823,7.56584502 16.9678126,6.84434155 18.5515324,6.84434155 L20.5714286,6.84343366 L20.5714286,3.57265423 C20.2219951,3.52816742 19.0230309,3.42857143 17.6281378,3.42857143 C14.7159077,3.42857143 12.7222427,5.13277952 12.7222427,8.26256299 L12.7222427,10.9594625 L9.42857143,10.9594625 L9.42857143,14.6164601 L12.7222427,14.6164601 L12.7222427,24 L16.6611823,24 Z" id="Fill-4" fill="#FEFEFE"></path>
                    </g>
                </g>
            </g>
        </g>
    </g>
</svg>